<?xml version="1.0" encoding="UTF-8" standalone="no"?>
<!-- Created with Inkscape (http://www.inkscape.org/) -->

<svg
   width="1024"
   height="768"
   viewBox="0 0 1024 768"
   version="1.1"
   id="svg5"
   inkscape:export-filename="bedroom_1.svg"
   inkscape:export-xdpi="96"
   inkscape:export-ydpi="96"
   inkscape:version="1.2.2 (b0a8486541, 2022-12-01)"
   sodipodi:docname="bedroom_1.svg"
   xmlns:inkscape="http://www.inkscape.org/namespaces/inkscape"
   xmlns:sodipodi="http://sodipodi.sourceforge.net/DTD/sodipodi-0.dtd"
   xmlns:xlink="http://www.w3.org/1999/xlink"
   xmlns="http://www.w3.org/2000/svg"
   xmlns:svg="http://www.w3.org/2000/svg">
  <sodipodi:namedview
     id="namedview7"
     pagecolor="#ffffff"
     bordercolor="#000000"
     borderopacity="0.25"
     inkscape:showpageshadow="2"
     inkscape:pageopacity="0.0"
     inkscape:pagecheckerboard="0"
     inkscape:deskcolor="#d1d1d1"
     inkscape:document-units="px"
     showgrid="false"
     showguides="false"
     inkscape:zoom="2.5420195"
     inkscape:cx="441.38135"
     inkscape:cy="401.25577"
     inkscape:window-width="2560"
     inkscape:window-height="1403"
     inkscape:window-x="0"
     inkscape:window-y="0"
     inkscape:window-maximized="1"
     inkscape:current-layer="clock">
    <sodipodi:guide
       position="1.7862911,633.13502"
       orientation="1,0"
       id="guide677"
       inkscape:locked="false" />
    <sodipodi:guide
       position="330.46386,0.78795582"
       orientation="0,-1"
       id="guide679"
       inkscape:locked="false" />
    <sodipodi:guide
       position="1024.438,379.48168"
       orientation="1,0"
       id="guide681"
       inkscape:locked="false" />
    <sodipodi:guide
       position="568.04058,768"
       orientation="0,-1"
       id="guide683"
       inkscape:locked="false" />
    <sodipodi:guide
       position="706.47815,189.24167"
       orientation="0,-1"
       id="guide685"
       inkscape:locked="false" />
    <sodipodi:guide
       position="131.2924,590.26403"
       orientation="1,0"
       id="guide3089"
       inkscape:locked="false" />
    <sodipodi:guide
       position="889.57299,494.69746"
       orientation="1,0"
       id="guide3091"
       inkscape:locked="false" />
    <sodipodi:guide
       position="362.6171,728.70159"
       orientation="0,-1"
       id="guide8009"
       inkscape:locked="false" />
  </sodipodi:namedview>
  <defs
     id="defs2">
    <filter
       y="-0.40039818"
       height="1.8275938"
       inkscape:menu-tooltip="Darkens the edge with an inner blur and adds a flexible glow"
       inkscape:menu="Shadows and Glows"
       inkscape:label="Dark and Glow"
       style="color-interpolation-filters:sRGB;"
       id="filter2202"
       x="-0.19720586"
       width="1.3944117">
      <feGaussianBlur
         stdDeviation="2.1692669"
         result="result6"
         id="feGaussianBlur2192" />
      <feComposite
         result="result8"
         in="SourceGraphic"
         operator="atop"
         in2="result6"
         id="feComposite2194" />
      <feComposite
         result="result9"
         operator="over"
         in2="SourceAlpha"
         in="result8"
         id="feComposite2196" />
      <feColorMatrix
         values="1 0 0 0 0 0 1 0 0 0 0 0 1 0 0 0 0 0 1 0 "
         result="result10"
         id="feColorMatrix2198" />
      <feBlend
         in="result10"
         mode="normal"
         in2="result6"
         id="feBlend2200" />
    </filter>
    <filter
       y="-2.3940055e-05"
       height="1.0000479"
       inkscape:menu-tooltip="Darkens the edge with an inner blur and adds a flexible glow"
       inkscape:menu="Shadows and Glows"
       inkscape:label="Dark and Glow"
       style="color-interpolation-filters:sRGB;"
       id="filter3792"
       x="-2.4982625e-05"
       width="1.00005">
      <feGaussianBlur
         stdDeviation="1.6545655e-05"
         result="result6"
         id="feGaussianBlur3782" />
      <feComposite
         result="result8"
         in="SourceGraphic"
         operator="atop"
         in2="result6"
         id="feComposite3784" />
      <feComposite
         result="result9"
         operator="over"
         in2="SourceAlpha"
         in="result8"
         id="feComposite3786" />
      <feColorMatrix
         values="1 0 0 0 0 0 1 0 0 0 0 0 1 0 0 0 0 0 1 0 "
         result="result10"
         id="feColorMatrix3788" />
      <feBlend
         in="result10"
         mode="normal"
         in2="result6"
         id="feBlend3790" />
    </filter>
    <filter
       inkscape:collect="always"
       style="color-interpolation-filters:sRGB"
       id="filter3794"
       x="-0.21921367"
       y="-0.21006549"
       width="1.4384273"
       height="1.420131">
      <feGaussianBlur
         inkscape:collect="always"
         stdDeviation="0.14518225"
         id="feGaussianBlur3796" />
    </filter>
    <clipPath
       clipPathUnits="userSpaceOnUse"
       id="clipPath3057">
      <use
         x="0"
         y="0"
         xlink:href="#g3053"
         id="use3059" />
    </clipPath>
  </defs>
  <g
     inkscape:label="room"
     inkscape:groupmode="layer"
     id="layer1"
     style="display:inline">
    <path
       style="opacity:1;fill:#0b005c;fill-opacity:1;stroke:#000000"
       d="M 2.5084831,765.64206 131.02725,578.31873 h 757.5235 l 134.56145,189.30151 z"
       id="floor" />
    <path
       style="display:inline;opacity:1;fill:#e1d1d1;fill-opacity:1;stroke:#000000"
       d="m 131.29938,577.81983 757.60026,2.27822 9.47666,-545.192203 -786.43298,4.471265 z"
       id="path8933"
       sodipodi:nodetypes="ccccc" />
    <path
       style="opacity:1;fill:#e7d9d9;fill-opacity:1;stroke:#000000"
       d="M 0.81290202,768.81343 1.1443428,-0.00348885 125.24087,42.768652 124.83981,157.17815 156.9529,170.0441 v 208.48819 l -25.5977,24.40752 v 42.48253 134.79084 z"
       id="path3093"
       sodipodi:nodetypes="cccccccccc" />
    <path
       style="opacity:1;fill:#a67272;fill-opacity:1;stroke:#000000"
       d="M 124.95139,42.576765 890.46491,43.014994 1022.5679,1.5909155 H 0.49541668 Z"
       id="path8011"
       sodipodi:nodetypes="ccccc" />
    <path
       style="opacity:1;fill:#e1d1d1;fill-opacity:1;stroke:#000000"
       d="m 892.86419,41.72162 0.38634,121.53562 -36.35005,11.28683 -5e-4,126.13268 -5e-4,83.10926 31.99712,25.41644 v 170.46172 l 134.7455,187.22622 -0.6764,-765.6972033 z"
       id="path8391"
       sodipodi:nodetypes="cccccccccc" />
    <path
       style="fill:none;fill-opacity:0.204967;stroke:#000000;stroke-width:1;stroke-linecap:round;stroke-dasharray:none;stroke-opacity:1;paint-order:markers fill stroke"
       d="M 888.21151,409.12726 131.424,404.33745"
       id="path6822" />
    <path
       style="fill:none;fill-opacity:0.204967;stroke:#000000;stroke-width:1;stroke-linecap:round;stroke-dasharray:none;stroke-opacity:1;paint-order:markers fill stroke"
       d="m 156.47874,377.80579 700.35874,4.79896 31.99712,25.59524 -757.33036,-4.79895 z"
       id="path6827"
       sodipodi:nodetypes="ccccc" />
    <path
       style="fill:#ffffff;fill-opacity:1;stroke:#000000;stroke-width:1;stroke-linecap:round;stroke-dasharray:none;stroke-opacity:1;paint-order:markers fill stroke"
       d="m 157.16207,170.29257 -33.23719,-12.92715 769.9402,6.01591 -36.92864,11.08001 z"
       id="path6831"
       sodipodi:nodetypes="ccccc" />
  </g>
  <g
     inkscape:groupmode="layer"
     id="window"
     inkscape:label="window">
    <g
       id="g3055"
       clip-path="url(#clipPath3057)">
      <g
         inkscape:label="Clip"
         id="g3053"
         style="display:inline">
        <path
           style="display:inline;fill:none;fill-opacity:1;stroke:none"
           d="m 902.96391,91.337038 1.31646,327.156672 93.3997,72.14628 2.15542,-423.988961 z"
           id="path8391-5"
           sodipodi:nodetypes="ccccc" />
      </g>
      <rect
         style="fill:#9fb1c3;fill-opacity:1;stroke:#5686a3;stroke-width:1;stroke-linecap:round;stroke-dasharray:none;stroke-opacity:1;paint-order:markers fill stroke"
         id="rect7780"
         width="269.77441"
         height="477.63361"
         x="881.62238"
         y="29.833893" />
      <g
         id="g3431"
         inkscape:label="car"
         transform="translate(372.88496,3.589007)"
         style="fill:#2f2f2f;fill-opacity:1">
        <path
           style="fill:#2f2f2f;fill-opacity:1;stroke:#000000;stroke-width:0.662567;stroke-linecap:round;stroke-dasharray:none;stroke-opacity:1;paint-order:markers fill stroke"
           d="m 442.06318,274.95525 115.53509,-1.76922 v -82.96857 l -64.41418,-62.90004 -101.18919,5.30768 -51.32194,17.68251 1.5217,81.2026 z"
           id="path3428" />
        <ellipse
           style="fill:#9f8b3b;fill-opacity:1;stroke:#000000;stroke-width:0.662567;stroke-linecap:round;stroke-dasharray:none;stroke-opacity:1;paint-order:markers fill stroke"
           id="path3497"
           cx="474.33612"
           cy="214.41408"
           rx="13.969871"
           ry="8.968482" />
        <ellipse
           style="fill:#9f8b3b;fill-opacity:1;stroke:#000000;stroke-width:0.662567;stroke-linecap:round;stroke-dasharray:none;stroke-opacity:1;paint-order:markers fill stroke"
           id="path3497-5"
           cx="529.74249"
           cy="210.01216"
           rx="13.969871"
           ry="8.968482" />
      </g>
      <path
         style="fill:#ccb0b0;fill-opacity:1;stroke:#000000;stroke-linecap:round;stroke-opacity:1"
         d="m 902.75607,417.19327 37.39049,-1.28667 63.19404,41.04823 4.9332,17.10648 -8.52888,28.68457 z"
         id="path3012"
         sodipodi:nodetypes="cccccc" />
      <path
         style="fill:#ccb0b0;fill-opacity:1;stroke:#000000;stroke-width:0.839935;stroke-linecap:round;stroke-opacity:1"
         d="m 939.23187,416.52342 -2.00404,-316.22947 -35.48005,-9.956433 1.0011,327.488883 z"
         id="path3062"
         sodipodi:nodetypes="ccccc" />
      <path
         style="fill:#ccb0b0;fill-opacity:1;stroke:#000000;stroke-width:1;stroke-linecap:round;stroke-dasharray:none;stroke-opacity:1;paint-order:markers fill stroke"
         d="m 901.03972,91.239935 112.79668,-27.325067 -2.8971,15.423034 -73.93581,20.567806 z"
         id="path3302"
         sodipodi:nodetypes="ccccc" />
      <path
         style="fill:none;stroke-linecap:round;paint-order:markers fill stroke;stroke:#a2a2a2;stroke-opacity:1;stroke-width:3;stroke-dasharray:none"
         d="M 1008.333,476.98312 926.20867,416.51597 924.76471,95.796008 1008.53,72.16658"
         id="path713" />
      <path
         style="fill:none;stroke:#a2a2a2;stroke-width:3;stroke-linecap:round;stroke-dasharray:none;stroke-opacity:1;paint-order:markers fill stroke"
         d="m 954.51025,121.56787 61.78125,109.86397"
         id="path3106" />
      <path
         style="fill:none;stroke:#a2a2a2;stroke-width:3;stroke-linecap:round;stroke-dasharray:none;stroke-opacity:1;paint-order:markers fill stroke"
         d="m 960.4607,103.06057 45.6045,87.2733"
         id="path3108" />
      <path
         style="fill:none;stroke:#a2a2a2;stroke-width:3;stroke-linecap:round;stroke-dasharray:none;stroke-opacity:1;paint-order:markers fill stroke"
         d="m 987.75264,123.10809 32.08496,60.40224"
         id="path3110" />
      <path
         style="fill:none;stroke:#a2a2a2;stroke-width:3;stroke-linecap:round;stroke-dasharray:none;stroke-opacity:1;paint-order:markers fill stroke"
         d="m 933.30757,116.15694 48.29985,88.31205"
         id="path3112" />
    </g>
    <path
       style="display:inline;fill:none;fill-opacity:1;stroke:#000000;stroke-width:2;stroke-linecap:round;stroke-dasharray:none;stroke-opacity:1;paint-order:markers fill stroke"
       d="m 902.96391,91.337038 1.31646,327.156672 93.3997,72.14628 2.15542,-423.988961 z"
       id="path3242"
       sodipodi:nodetypes="ccccc" />
  </g>
  <g
     inkscape:groupmode="layer"
     id="bed"
     inkscape:label="bed">
    <path
       style="opacity:1;fill:#c8eae7;fill-opacity:1;stroke:#000000"
       d="m 762.86448,618.11961 -79.46861,-106.98314 -0.60499,-20.63645 205.9706,0.48502 86.67627,102.95575 0.359,24.60496 z"
       id="path8939"
       sodipodi:nodetypes="ccccccc"
       inkscape:label="hover" />
    <path
       style="opacity:1;fill:#e1d1d1;fill-opacity:0;stroke:#000000"
       d="M 973.76245,593.85922 764.46268,592.43041 682.07753,490.86384"
       id="path8941"
       sodipodi:nodetypes="ccc" />
    <path
       style="fill:none;fill-opacity:0.204967;stroke:#000000;stroke-width:1;stroke-linecap:round;stroke-dasharray:none;stroke-opacity:1;paint-order:markers fill stroke"
       d="m 763.81519,617.92865 0.55909,-26.58404"
       id="path6829"
       sodipodi:nodetypes="cc" />
  </g>
  <g
     inkscape:groupmode="layer"
     id="layer4"
     inkscape:label="desk"
     transform="translate(27.108448,-25.255414)"
     style="display:inline">
    <path
       style="fill:#0c150d;fill-opacity:0.204967;stroke:none;stroke-width:0.5;stroke-linecap:round;stroke-dasharray:none;stroke-opacity:1;paint-order:markers fill stroke"
       d="m 412.60325,446.97828 34.75946,82.66487 172.14353,-1.05901 3.2202,-77.41604 z"
       id="path6126"
       sodipodi:nodetypes="ccccc" />
    <path
       style="opacity:1;fill:#7f7f7f;fill-opacity:1;stroke:#000000"
       d="m 412.83201,446.19864 0.83198,-14.89739 210.71734,1.61966 30.3472,28.75325 -0.18821,14.92165 -234.15859,1.45648 z"
       id="path9324"
       sodipodi:nodetypes="ccccccc" />
    <path
       style="opacity:1;fill:none;fill-opacity:1;stroke:#000000"
       d="m 413.97697,433.41929 6.45766,28.11025 234.31584,0.0684"
       id="path10562"
       sodipodi:nodetypes="ccc" />
    <path
       style="fill:#000000;fill-opacity:1;stroke:#000000;stroke-width:1;stroke-linecap:round;stroke-dasharray:none;stroke-opacity:1;paint-order:markers fill stroke"
       d="M 419.91649,462.6981 V 477.631"
       id="path4088"
       sodipodi:nodetypes="cc" />
  </g>
  <g
     inkscape:groupmode="layer"
     id="clock"
     inkscape:label="clock"
     transform="translate(174.76695,-43.104553)"
     style="display:inline">
    <path
       style="fill:#2b4c2e;fill-opacity:1;stroke:#000000"
       d="m 657.14861,445.70219 -8.00612,-11.20087 -0.23558,-24.88935 32.71466,0.23514 3.27182,3.06119 z"
       id="path2650"
       sodipodi:nodetypes="cccccc" />
    <path
       style="fill:#2b4c2e;fill-opacity:1;stroke:#000000"
       d="m 690.88436,436.87739 -6.72709,-4.70936 -30.68408,-0.47115 3.85955,5.36508 z"
       id="path2648"
       sodipodi:nodetypes="ccccc" />
    <rect
       style="fill:#2b4c2e;fill-opacity:1;stroke:#000000;stroke-width:0.810353"
       id="rect2592"
       width="31.170252"
       height="19.364658"
       x="653.54303"
       y="412.79272" />
    <rect
       style="fill:#2b4c2e;fill-opacity:1;stroke:#000000"
       id="rect249"
       width="34.206482"
       height="8.9479923"
       x="657.35437"
       y="437.00101" />
    <path
       style="fill:#2b4c2e;fill-opacity:1;stroke:#000000"
       d="m 649.00741,409.59435 4.57375,3.29252"
       id="path2753" />
    <g
       aria-label="00:00"
       id="text2809"
       style="font-size:12px;font-family:'Digital-7 Mono';-inkscape-font-specification:'Digital-7 Mono, Normal';fill:#e80707"
       inkscape:label="clock text">
      <path
         d="m 660.69252,419.30374 0.21818,0.21818 v 3.05454 q -0.10909,0.43637 -0.54546,0.54546 l -0.32727,-0.87273 v -2.29091 z m -0.54546,3.81818 h -3.27272 q -0.43637,-0.10909 -0.54546,-0.54546 l 0.87273,-0.32727 h 2.61818 z m -3.81818,-0.76364 v -2.83636 l 0.21818,-0.21818 0.65455,0.65454 v 2.07273 z m 3.49091,-6.21818 h -2.60727 l -0.87273,-0.32727 q 0.10909,-0.43637 0.54545,-0.54546 h 3.26182 z m -2.61818,0.21818 v 2.07273 l -0.65455,0.65454 -0.21818,-0.21818 v -2.83636 z m 2.83636,2.07273 v -2.29091 l 0.32727,-0.87273 q 0.43637,0.10909 0.54546,0.54546 v 3.05454 l -0.21818,0.21818 z"
         id="path324" />
      <path
         d="m 666.14707,419.30374 0.21818,0.21818 v 3.05454 q -0.10909,0.43637 -0.54545,0.54546 l -0.32728,-0.87273 v -2.29091 z m -0.54546,3.81818 h -3.27272 q -0.43637,-0.10909 -0.54546,-0.54546 l 0.87273,-0.32727 h 2.61818 z m -3.81818,-0.76364 v -2.83636 l 0.21818,-0.21818 0.65455,0.65454 v 2.07273 z m 3.49091,-6.21818 h -2.60727 l -0.87273,-0.32727 q 0.10909,-0.43637 0.54546,-0.54546 h 3.26181 z m -2.61818,0.21818 v 2.07273 l -0.65455,0.65454 -0.21818,-0.21818 v -2.83636 z m 2.83636,2.07273 v -2.29091 l 0.32728,-0.87273 q 0.43636,0.10909 0.54545,0.54546 v 3.05454 l -0.21818,0.21818 z"
         id="path326" />
      <path
         d="m 669.96526,421.37646 h -0.87273 v -0.87272 h 0.87273 z m 0,-3.49091 h -0.87273 v -0.87272 h 0.87273 z"
         id="path328" />
      <path
         d="m 677.05617,419.30374 0.21818,0.21818 v 3.05454 q -0.10909,0.43637 -0.54545,0.54546 l -0.32727,-0.87273 v -2.29091 z m -0.54545,3.81818 h -3.27273 q -0.43636,-0.10909 -0.54545,-0.54546 l 0.87272,-0.32727 h 2.61818 z m -3.81818,-0.76364 v -2.83636 l 0.21818,-0.21818 0.65454,0.65454 v 2.07273 z m 3.4909,-6.21818 h -2.60727 l -0.87273,-0.32727 q 0.1091,-0.43637 0.54546,-0.54546 h 3.26182 z m -2.61818,0.21818 v 2.07273 l -0.65454,0.65454 -0.21818,-0.21818 v -2.83636 z m 2.83637,2.07273 v -2.29091 l 0.32727,-0.87273 q 0.43636,0.10909 0.54545,0.54546 v 3.05454 l -0.21818,0.21818 z"
         id="path330" />
      <path
         d="m 682.51072,419.30374 0.21819,0.21818 v 3.05454 q -0.1091,0.43637 -0.54546,0.54546 l -0.32727,-0.87273 v -2.29091 z m -0.54545,3.81818 h -3.27273 q -0.43636,-0.10909 -0.54545,-0.54546 l 0.87272,-0.32727 h 2.61819 z m -3.81818,-0.76364 v -2.83636 l 0.21818,-0.21818 0.65454,0.65454 v 2.07273 z m 3.49091,-6.21818 h -2.60728 l -0.87272,-0.32727 q 0.10909,-0.43637 0.54545,-0.54546 h 3.26182 z m -2.61819,0.21818 v 2.07273 l -0.65454,0.65454 -0.21818,-0.21818 v -2.83636 z m 2.83637,2.07273 v -2.29091 l 0.32727,-0.87273 q 0.43636,0.10909 0.54546,0.54546 v 3.05454 l -0.21819,0.21818 z"
         id="path332" />
      <ellipse
         style="font-size:12px;font-family:'Digital-7 Mono';-inkscape-font-specification:'Digital-7 Mono, Normal';opacity:1;fill:#e20000;fill-opacity:1;stroke:none;stroke-width:1;stroke-linecap:round;stroke-dasharray:none;stroke-opacity:1;filter:url(#filter3792)"
         id="path3114-2"
         cx="680.97858"
         cy="427.43323"
         rx="0.79474378"
         ry="0.82935423" />
    </g>
    <g
       id="g1898"
       inkscape:label="alarm"
       style="display:none">
      <path
         style="fill:#e80707;stroke:#ff1717;stroke-width:5;stroke-linecap:round;stroke-dasharray:none;stroke-opacity:1"
         d="M 644.84762,418.30922 622.112,412.01464"
         id="path389"
         sodipodi:nodetypes="cc" />
      <path
         style="fill:#e80707;stroke:#ff1717;stroke-width:5;stroke-linecap:round;stroke-dasharray:none;stroke-opacity:1"
         d="m 646.00348,408.74132 -27.7729,-16.00411"
         id="path1096" />
      <path
         style="fill:#e80707;stroke:#ff1717;stroke-width:5;stroke-linecap:round;stroke-dasharray:none;stroke-opacity:1"
         d="M 652.92585,405.74146 635.86686,372.64412"
         id="path1098" />
      <path
         style="fill:#e80707;stroke:#ff1717;stroke-width:5;stroke-linecap:round;stroke-dasharray:none;stroke-opacity:1"
         d="M 663.13608,405.20311 654.97654,367.689"
         id="path1100" />
      <path
         style="fill:#e80707;stroke:#ff1717;stroke-width:5;stroke-linecap:round;stroke-dasharray:none;stroke-opacity:1"
         d="m 671.15354,404.8783 1.86497,-37.64592"
         id="path1102" />
      <path
         style="fill:#e80707;stroke:#ff1717;stroke-width:5;stroke-linecap:round;stroke-dasharray:none;stroke-opacity:1"
         d="m 680.93949,404.88253 8.59931,-29.81276"
         id="path1104" />
      <path
         style="display:inline;fill:#e80707;stroke:#ff1717;stroke-width:5;stroke-linecap:round;stroke-dasharray:none;stroke-opacity:1"
         d="m 688.84289,409.04218 14.50009,-18.45042"
         id="path1106" />
      <path
         style="fill:#e80707;stroke:#ff1717;stroke-width:5;stroke-linecap:round;stroke-dasharray:none;stroke-opacity:1"
         d="m 691.41033,416.82548 22.87155,-4.11229"
         id="path1109" />
    </g>
    <path
       style="fill:none;stroke:none;stroke-width:1;stroke-linecap:round;stroke-dasharray:none;stroke-opacity:1"
       d="m 648.9337,434.07521 8.33609,11.32439 34.16949,0.26702 0.26702,-8.76608 -7.20861,-4.54575 0.26751,-19.85829 -3.47619,-3.31373 -32.61154,0.26752 z"
       id="path1952"
       inkscape:label="hover" />
    <g
       aria-label="00:00"
       id="g2178"
       style="font-size:12px;font-family:'Digital-7 Mono';-inkscape-font-specification:'Digital-7 Mono, Normal';display:inline;mix-blend-mode:normal;fill:#e80707;filter:url(#filter2202)"
       inkscape:label="clock text bright">
      <path
         d="m 660.69252,419.30374 0.21818,0.21818 v 3.05454 q -0.10909,0.43637 -0.54546,0.54546 l -0.32727,-0.87273 v -2.29091 z m -0.54546,3.81818 h -3.27272 q -0.43637,-0.10909 -0.54546,-0.54546 l 0.87273,-0.32727 h 2.61818 z m -3.81818,-0.76364 v -2.83636 l 0.21818,-0.21818 0.65455,0.65454 v 2.07273 z m 3.49091,-6.21818 h -2.60727 l -0.87273,-0.32727 q 0.10909,-0.43637 0.54545,-0.54546 h 3.26182 z m -2.61818,0.21818 v 2.07273 l -0.65455,0.65454 -0.21818,-0.21818 v -2.83636 z m 2.83636,2.07273 v -2.29091 l 0.32727,-0.87273 q 0.43637,0.10909 0.54546,0.54546 v 3.05454 l -0.21818,0.21818 z"
         id="path2168" />
      <path
         d="m 666.14707,419.30374 0.21818,0.21818 v 3.05454 q -0.10909,0.43637 -0.54545,0.54546 l -0.32728,-0.87273 v -2.29091 z m -0.54546,3.81818 h -3.27272 q -0.43637,-0.10909 -0.54546,-0.54546 l 0.87273,-0.32727 h 2.61818 z m -3.81818,-0.76364 v -2.83636 l 0.21818,-0.21818 0.65455,0.65454 v 2.07273 z m 3.49091,-6.21818 h -2.60727 l -0.87273,-0.32727 q 0.10909,-0.43637 0.54546,-0.54546 h 3.26181 z m -2.61818,0.21818 v 2.07273 l -0.65455,0.65454 -0.21818,-0.21818 v -2.83636 z m 2.83636,2.07273 v -2.29091 l 0.32728,-0.87273 q 0.43636,0.10909 0.54545,0.54546 v 3.05454 l -0.21818,0.21818 z"
         id="path2170" />
      <path
         d="m 669.96526,421.37646 h -0.87273 v -0.87272 h 0.87273 z m 0,-3.49091 h -0.87273 v -0.87272 h 0.87273 z"
         id="path2172" />
      <path
         d="m 677.05617,419.30374 0.21818,0.21818 v 3.05454 q -0.10909,0.43637 -0.54545,0.54546 l -0.32727,-0.87273 v -2.29091 z m -0.54545,3.81818 h -3.27273 q -0.43636,-0.10909 -0.54545,-0.54546 l 0.87272,-0.32727 h 2.61818 z m -3.81818,-0.76364 v -2.83636 l 0.21818,-0.21818 0.65454,0.65454 v 2.07273 z m 3.4909,-6.21818 h -2.60727 l -0.87273,-0.32727 q 0.1091,-0.43637 0.54546,-0.54546 h 3.26182 z m -2.61818,0.21818 v 2.07273 l -0.65454,0.65454 -0.21818,-0.21818 v -2.83636 z m 2.83637,2.07273 v -2.29091 l 0.32727,-0.87273 q 0.43636,0.10909 0.54545,0.54546 v 3.05454 l -0.21818,0.21818 z"
         id="path2174" />
      <path
         d="m 682.51072,419.30374 0.21819,0.21818 v 3.05454 q -0.1091,0.43637 -0.54546,0.54546 l -0.32727,-0.87273 v -2.29091 z m -0.54545,3.81818 h -3.27273 q -0.43636,-0.10909 -0.54545,-0.54546 l 0.87272,-0.32727 h 2.61819 z m -3.81818,-0.76364 v -2.83636 l 0.21818,-0.21818 0.65454,0.65454 v 2.07273 z m 3.49091,-6.21818 h -2.60728 l -0.87272,-0.32727 q 0.10909,-0.43637 0.54545,-0.54546 h 3.26182 z m -2.61819,0.21818 v 2.07273 l -0.65454,0.65454 -0.21818,-0.21818 v -2.83636 z m 2.83637,2.07273 v -2.29091 l 0.32727,-0.87273 q 0.43636,0.10909 0.54546,0.54546 v 3.05454 l -0.21819,0.21818 z"
         id="path2176" />
      <ellipse
         style="opacity:1;fill:#e20000;fill-opacity:1;stroke:none;stroke-width:1;stroke-linecap:round;stroke-dasharray:none;stroke-opacity:1;filter:url(#filter3794)"
         id="path3114"
         cx="680.96014"
         cy="427.44067"
         rx="0.79474378"
         ry="0.82935423" />
    </g>
    <path
       style="fill:#0c150d;fill-opacity:1;stroke:#3c3c3c;stroke-width:0.5;stroke-linecap:round;stroke-dasharray:none;stroke-opacity:1;paint-order:markers fill stroke"
       d="m 665.22256,435.55723 h 17.38857 l -2.91093,-2.26427 h -16.64322 z"
       id="path4366" />
  </g>
  <g
     inkscape:groupmode="layer"
     id="mirror"
     inkscape:label="mirror"
     style="display:inline;fill:#ffccaa"
     transform="translate(-2.1404733,-17.404831)">
    <rect
       style="opacity:1;fill:#bbbbbb;fill-opacity:1;stroke:#000000;stroke-width:5;stroke-dasharray:none;stroke-opacity:1"
       id="rect11578"
       width="202.7653"
       height="182.93178"
       x="182.54994"
       y="201.45926"
       ry="0" />
    <path
       style="opacity:1;fill:#ffccaa;fill-opacity:1;stroke:#9c9c9c;stroke-width:5;stroke-dasharray:none;stroke-opacity:1"
       d="m 289.32299,214.20083 71.53699,80.56875"
       id="path14624" />
    <path
       style="opacity:1;fill:#ffccaa;fill-opacity:1;stroke:#9c9c9c;stroke-width:5;stroke-dasharray:none;stroke-opacity:1"
       d="M 250.66628,213.99146 355.01186,328.32387"
       id="path14626" />
    <path
       style="opacity:1;fill:#ffccaa;fill-opacity:1;stroke:#9c9c9c;stroke-width:5;stroke-dasharray:none;stroke-opacity:1"
       d="m 289.73887,237.09141 79.68536,90.55558"
       id="path14628" />
    <path
       style="opacity:1;fill:#ffccaa;fill-opacity:1;stroke:#9c9c9c;stroke-width:5;stroke-dasharray:none;stroke-opacity:1"
       d="m 224.38844,218.00111 c 4.68653,4.6894 71.19569,81.52383 71.19569,81.52383"
       id="path14630" />
  </g>
  <g
     inkscape:groupmode="layer"
     id="layer2"
     inkscape:label="sink" />
  <g
     inkscape:groupmode="layer"
     id="layer3"
     inkscape:label="door">
    <path
       style="fill:#4c4c4c;fill-opacity:1;stroke:#000000;stroke-width:3;stroke-linecap:round;stroke-dasharray:none;stroke-opacity:1;paint-order:markers fill stroke;stroke-linejoin:round"
       d="M 92.645403,636.65596 89.595874,119.96942 20.303142,97.228394 V 739.72832 Z"
       id="path7227" />
    <path
       style="fill:#4c4c4c;fill-opacity:1;stroke:#000000;stroke-width:3;stroke-linecap:round;stroke-linejoin:round;stroke-dasharray:none;stroke-opacity:1;paint-order:markers fill stroke"
       d="M 76.73075,309.43951 33.277588,305.14457"
       id="path7769" />
    <path
       style="fill:#4c4c4c;fill-opacity:1;stroke:#000000;stroke-width:3;stroke-linecap:round;stroke-linejoin:round;stroke-dasharray:none;stroke-opacity:1;paint-order:markers fill stroke"
       d="m 77.602441,538.46221 1.432377,93.00378"
       id="path7771" />
    <path
       style="fill:#4c4c4c;fill-opacity:1;stroke:#000000;stroke-width:3;stroke-linecap:round;stroke-linejoin:round;stroke-dasharray:none;stroke-opacity:1;paint-order:markers fill stroke"
       d="m 67.286697,554.96302 1.43238,93.00378"
       id="path7771-3" />
    <path
       style="fill:#4c4c4c;fill-opacity:1;stroke:#000000;stroke-width:3;stroke-linecap:round;stroke-linejoin:round;stroke-dasharray:none;stroke-opacity:1;paint-order:markers fill stroke"
       d="m 54.879334,573.48537 1.43238,93.00378"
       id="path7771-3-6" />
    <path
       style="fill:#4c4c4c;fill-opacity:1;stroke:#000000;stroke-width:3;stroke-linecap:round;stroke-linejoin:round;stroke-dasharray:none;stroke-opacity:1;paint-order:markers fill stroke"
       d="m 37.671087,598.87831 1.43238,93.00378"
       id="path7771-3-6-7" />
    <path
       style="fill:#4c4c4c;fill-opacity:1;stroke:#000000;stroke-width:3;stroke-linecap:round;stroke-linejoin:round;stroke-dasharray:none;stroke-opacity:1;paint-order:markers fill stroke"
       d="m 74.728925,143.23555 c -2.862564,-1.43238 -41.149093,-14.3172 -41.149093,-14.3172"
       id="path7884" />
    <path
       style="fill:#bebebe;fill-opacity:1;stroke:#000000;stroke-width:3;stroke-linecap:round;stroke-linejoin:round;stroke-dasharray:none;stroke-opacity:1;paint-order:markers fill stroke"
       d="m 97.83051,329.46289 -0.894191,58.0226 20.715491,-15.06318 0.63713,-44.63163 z"
       id="path7886"
       sodipodi:nodetypes="ccccc" />
    <path
       style="fill:#bebebe;fill-opacity:1;stroke:#000000;stroke-width:2;stroke-linecap:round;stroke-linejoin:round;stroke-dasharray:none;stroke-opacity:1;paint-order:markers fill stroke"
       d="m 101.89843,374.32728 11.09553,-6.53496"
       id="path7942" />
    <path
       style="fill:#bebebe;fill-opacity:1;stroke:#000000;stroke-width:2;stroke-linecap:round;stroke-linejoin:round;stroke-dasharray:none;stroke-opacity:1;paint-order:markers fill stroke"
       d="m 101.25156,365.04247 10.68831,-4.24558"
       id="path7944" />
    <path
       style="fill:#bebebe;fill-opacity:1;stroke:#000000;stroke-width:2;stroke-linecap:round;stroke-linejoin:round;stroke-dasharray:none;stroke-opacity:1;paint-order:markers fill stroke"
       d="m 111.84765,333.95694 c 0,0.84885 0,5.09508 0,5.09508"
       id="path7946" />
    <path
       style="fill:#bebebe;fill-opacity:1;stroke:#000000;stroke-width:2;stroke-linecap:round;stroke-linejoin:round;stroke-dasharray:none;stroke-opacity:1;paint-order:markers fill stroke"
       d="m 111.84765,343.72235 v 6.70057"
       id="path7948" />
    <path
       style="fill:#bebebe;fill-opacity:1;stroke:#000000;stroke-width:2;stroke-linecap:round;stroke-linejoin:round;stroke-dasharray:none;stroke-opacity:1;paint-order:markers fill stroke"
       d="m 106.89869,333.34839 v 5.94394"
       id="path7950" />
    <path
       style="fill:#bebebe;fill-opacity:1;stroke:#000000;stroke-width:2;stroke-linecap:round;stroke-linejoin:round;stroke-dasharray:none;stroke-opacity:1;paint-order:markers fill stroke"
       d="m 106.89869,343.11315 v 7.2182"
       id="path7952" />
  </g>
</svg>
