<?xml version="1.0" encoding="UTF-8" standalone="no"?>
<!-- Created with Inkscape (http://www.inkscape.org/) -->

<svg
   width="30"
   height="30"
   viewBox="0 0 30 30"
   version="1.1"
   id="svg48868"
   xml:space="preserve"
   inkscape:version="1.2.2 (b0a8486541, 2022-12-01)"
   sodipodi:docname="drop_icon.svg"
   xmlns:inkscape="http://www.inkscape.org/namespaces/inkscape"
   xmlns:sodipodi="http://sodipodi.sourceforge.net/DTD/sodipodi-0.dtd"
   xmlns="http://www.w3.org/2000/svg"
   xmlns:svg="http://www.w3.org/2000/svg"><sodipodi:namedview
     id="namedview48870"
     pagecolor="#ffffff"
     bordercolor="#000000"
     borderopacity="0.25"
     inkscape:showpageshadow="2"
     inkscape:pageopacity="0.0"
     inkscape:pagecheckerboard="0"
     inkscape:deskcolor="#d1d1d1"
     inkscape:document-units="px"
     showgrid="false"
     inkscape:zoom="8"
     inkscape:cx="15"
     inkscape:cy="15"
     inkscape:window-width="1410"
     inkscape:window-height="903"
     inkscape:window-x="0"
     inkscape:window-y="0"
     inkscape:window-maximized="1"
     inkscape:current-layer="layer1"
     showguides="false" /><defs
     id="defs48865" /><g
     inkscape:label="Layer 1"
     inkscape:groupmode="layer"
     id="layer1"
     transform="matrix(0.4430009,0,0,0.4430009,-7.062116,-7.7807484)"><path
       style="fill:#ffffff;fill-opacity:1;stroke:#000000;stroke-width:2.93453;stroke-linecap:round;stroke-linejoin:round;stroke-dasharray:none;stroke-opacity:1;paint-order:markers fill stroke"
       d="m 44.555823,51.136017 c 0,0 -10.858876,6.925635 -2.98053,15.649728 4.30303,4.764955 8.610852,9.268542 8.610852,9.268542 1.691982,1.764768 4.040044,2.029633 5.877043,2.506358 0,0 2.52217,0.61969 9.085647,0.198987 8.36798,-0.53637 12.256259,-8.470368 12.340451,-13.182843 0.08419,-4.712476 0.452757,-14.263599 0.452757,-14.263599 0.148635,-8.230729 -7.382291,-6.627608 -8.00852,-1.774638 l 0.226386,-4.986137 C 69.940731,38.890702 62.741367,39.8824 62.081949,43.087006 l -0.315645,6.177126 0.185885,-6.171443 c 0.885749,-6.421685 -7.628481,-7.41432 -8.137607,-1.230397 l -0.447014,7.039848 0.283829,-5.086979 c -1.059447,-4.778797 -7.934392,-3.664768 -8.082603,-0.14566 l -0.610412,13.289523"
       id="path50144"
       sodipodi:nodetypes="cssccsccccccccccc" /></g></svg>
