<?xml version="1.0" encoding="UTF-8" standalone="no"?>
<!-- Created with Inkscape (http://www.inkscape.org/) -->

<svg
   width="30"
   height="30"
   viewBox="0 0 30 30"
   version="1.1"
   id="svg48868"
   xml:space="preserve"
   inkscape:version="1.2.2 (b0a8486541, 2022-12-01)"
   sodipodi:docname="grab_icon.svg"
   xmlns:inkscape="http://www.inkscape.org/namespaces/inkscape"
   xmlns:sodipodi="http://sodipodi.sourceforge.net/DTD/sodipodi-0.dtd"
   xmlns="http://www.w3.org/2000/svg"
   xmlns:svg="http://www.w3.org/2000/svg"><sodipodi:namedview
     id="namedview48870"
     pagecolor="#ffffff"
     bordercolor="#000000"
     borderopacity="0.25"
     inkscape:showpageshadow="2"
     inkscape:pageopacity="0.0"
     inkscape:pagecheckerboard="0"
     inkscape:deskcolor="#d1d1d1"
     inkscape:document-units="px"
     showgrid="false"
     inkscape:zoom="8"
     inkscape:cx="15"
     inkscape:cy="15"
     inkscape:window-width="1410"
     inkscape:window-height="903"
     inkscape:window-x="0"
     inkscape:window-y="0"
     inkscape:window-maximized="1"
     inkscape:current-layer="layer1"
     showguides="false" /><defs
     id="defs48865" /><g
     inkscape:label="Layer 1"
     inkscape:groupmode="layer"
     id="layer1"
     transform="matrix(0.4430009,0,0,0.4430009,-7.062116,-7.7807484)"><path
       style="fill:#ffffff;stroke:#000000;stroke-width:2.93453128;stroke-linecap:round;stroke-linejoin:round;stroke-dasharray:none;stroke-opacity:1;paint-order:markers fill stroke;fill-opacity:1"
       d="m 44.536276,64.792447 c 0,0 -2.308352,12.670875 9.445505,12.828871 6.419768,0.08629 12.651189,-0.0087 12.651189,-0.0087 2.444504,-0.0401 4.235665,-1.581298 5.834549,-2.603747 0,0 2.169697,-1.427507 6.325312,-6.525259 C 84.090952,61.984327 80.91916,53.737705 77.521753,50.470881 74.124346,47.204057 67.373186,40.437844 67.373186,40.437844 c -5.932773,-5.706942 -9.879563,0.904237 -6.747817,4.663978 l -3.501312,-3.557193 c -4.299616,-3.690033 -8.469128,2.262233 -6.568354,4.9252 l 4.313709,4.432655 -4.397795,-4.333666 c -4.105247,-5.016925 -10.623735,0.549648 -6.436636,5.128766 l 4.856814,5.115726 -3.536171,-3.66789 c -4.223852,-2.473541 -8.083036,3.324098 -5.604016,5.826208 l 9.327253,9.486114"
       id="path50144"
       sodipodi:nodetypes="cssccsccccccccccc" /></g></svg>
