<?xml version="1.0" encoding="UTF-8" standalone="no"?>
<!-- Created with Inkscape (http://www.inkscape.org/) -->

<svg
   width="30"
   height="30"
   viewBox="0 0 30 30"
   version="1.1"
   id="svg48868"
   xml:space="preserve"
   inkscape:version="1.4 (86a8ad7, 2024-10-11)"
   sodipodi:docname="icons.svg"
   inkscape:export-filename="drop.png"
   inkscape:export-xdpi="96"
   inkscape:export-ydpi="96"
   xmlns:inkscape="http://www.inkscape.org/namespaces/inkscape"
   xmlns:sodipodi="http://sodipodi.sourceforge.net/DTD/sodipodi-0.dtd"
   xmlns="http://www.w3.org/2000/svg"
   xmlns:svg="http://www.w3.org/2000/svg"><sodipodi:namedview
     id="namedview48870"
     pagecolor="#ffffff"
     bordercolor="#000000"
     borderopacity="0.25"
     inkscape:showpageshadow="2"
     inkscape:pageopacity="0.0"
     inkscape:pagecheckerboard="0"
     inkscape:deskcolor="#d1d1d1"
     inkscape:document-units="px"
     showgrid="false"
     inkscape:zoom="16"
     inkscape:cx="21.6875"
     inkscape:cy="17.40625"
     inkscape:window-width="2560"
     inkscape:window-height="1417"
     inkscape:window-x="1432"
     inkscape:window-y="518"
     inkscape:window-maximized="1"
     inkscape:current-layer="layer3"
     showguides="true"><sodipodi:guide
       position="15,32.43068"
       orientation="-1,0"
       id="guide1"
       inkscape:locked="false"
       inkscape:label=""
       inkscape:color="rgb(0,134,229)" /><sodipodi:guide
       position="15,15"
       orientation="0,1"
       id="guide2"
       inkscape:locked="false"
       inkscape:label=""
       inkscape:color="rgb(0,134,229)" /></sodipodi:namedview><defs
     id="defs48865" /><g
     inkscape:label="grab hold"
     inkscape:groupmode="layer"
     id="layer1"
     transform="matrix(0.4430009,0,0,0.4430009,-8.3879412,-9.7694862)"
     style="display:none"><path
       style="fill:#ffffff;fill-opacity:1;stroke:#000000;stroke-width:2.93453;stroke-linecap:round;stroke-linejoin:round;stroke-dasharray:none;stroke-opacity:1;paint-order:markers fill stroke"
       d="m 44.536276,64.792447 c 0,0 -2.308352,12.670875 9.445505,12.828871 6.419768,0.08629 12.651189,-0.0087 12.651189,-0.0087 2.444504,-0.0401 4.235665,-1.581298 5.834549,-2.603747 0,0 2.169697,-1.427507 6.325312,-6.525259 C 84.090952,61.984327 80.91916,53.737705 77.521753,50.470881 74.124346,47.204057 67.373186,40.437844 67.373186,40.437844 c -5.932773,-5.706942 -9.879563,0.904237 -6.747817,4.663978 l -1.506094,-1.611855 c -4.299616,-3.690033 -8.469128,2.262233 -6.568354,4.9252 l 2.318491,2.487317 -1.556078,-1.541829 c -4.105247,-5.016925 -10.623735,0.549648 -6.436636,5.128766 l 2.015097,2.323889 -1.540953,-1.722552 c -4.223852,-2.473541 -8.083036,3.324098 -5.604016,5.826208 l 7.332035,7.540776"
       id="path5"
       sodipodi:nodetypes="cssccsccccccccccc" /></g><g
     inkscape:label="pick up"
     inkscape:groupmode="layer"
     id="g2"
     transform="matrix(0.4430009,0,0,0.4430009,-4.9849898,-9.2391561)"
     style="display:none"><path
       style="display:inline;fill:#ffffff;fill-opacity:1;stroke:#000000;stroke-width:2.93453;stroke-linecap:round;stroke-linejoin:round;stroke-dasharray:none;stroke-opacity:1;paint-order:markers fill stroke"
       d="M 40.16476,61.292359 36.313428,37.387188 c -0.978961,-4.210797 4.816868,-6.222979 6.038719,-0.933253 0,0 2.326506,15.787963 4.451486,15.969545 2.261148,0.193218 -0.185037,-16.684231 0.467661,-20.372964 0.04537,-6.087148 5.761304,-6.892918 5.779914,-0.410461 0.457102,4.937913 0.0097,19.822123 1.786035,19.688248 1.583286,-0.119325 4.083565,-16.243281 4.083565,-16.243281 0.763232,-6.03142 6.630247,-4.097094 5.734437,0.183281 0,0 -3.599691,14.712921 -1.583008,15.383686 1.693755,0.563357 5.427395,-11.364341 5.427395,-11.364341 0.913069,-3.535471 5.645054,-2.55126 4.499573,1.801078 0,0 -3.323957,19.301383 -3.384897,23.908995 -0.06233,4.712815 1.795673,13.367659 -6.415695,15.065959 -6.440637,1.33207 -9.024588,1.070232 -9.024588,1.070232 -1.885536,-0.21584 -4.247589,-0.150605 -6.169182,-1.662124 0,0 -4.893877,-3.858704 -9.819464,-7.976891 C 29.167203,63.954963 26.937151,54.3227 26.937151,54.3227 c -1.418734,-4.813795 3.400228,-6.896251 5.682289,-1.019792 2.061337,4.949947 4.290182,6.230783 7.54532,7.989451 z"
       id="path2"
       sodipodi:nodetypes="cssccsccsccsccsccccc" /></g><g
     inkscape:groupmode="layer"
     id="layer2"
     inkscape:label="look"
     style="display:none"><path
       style="display:inline;fill:#000000;fill-opacity:1;stroke:none;stroke-width:0.1;stroke-dasharray:none;stroke-opacity:1;paint-order:normal"
       d="m 6.872194,14.893437 c 0,-1.262406 4.027261,-5.6789517 9.413359,-5.6789517 5.77663,0 9.899495,4.4068277 9.899495,5.7010487 0,1.305068 -4.275192,5.701048 -9.590136,5.701048 -5.611819,0 -9.722718,-4.407796 -9.722718,-5.723145 z"
       id="path3"
       sodipodi:nodetypes="sssss" /><circle
       style="fill:none;fill-opacity:1;stroke:#ffffff;stroke-width:1.7;stroke-dasharray:none;stroke-opacity:1;paint-order:normal"
       id="path4"
       cx="16.546875"
       cy="14.9375"
       r="3.078125" /></g><g
     inkscape:groupmode="layer"
     id="layer3"
     inkscape:label="interact"
     style="display:none"><path
       style="display:inline;fill:#ffffff;fill-opacity:1;stroke:#000000;stroke-width:1.3;stroke-linecap:round;stroke-linejoin:round;stroke-dasharray:none;stroke-opacity:1;paint-order:markers fill stroke"
       d="M 10.189736,17.435699 10.110596,3.49577 C 10.13193,1.529713 13.261632,1.141463 13.46847,3.5339 l 0.1936,10.086062 0.05453,-2.517779 c 0.03757,-2.748496 3.830631,-2.567867 3.633814,0.297126 l 0.03456,2.126061 0.0062,-2.66258 c 0.194302,-1.436304 3.346092,-2.092822 3.614586,0.402804 l -0.1278,2.10222 c 0.09842,-3.257567 3.503214,-3.631861 3.687009,0.01032 0,0 0.157867,4.794912 0.263499,6.880202 0.105634,2.08529 -1.37235,5.70968 -5.054427,6.200383 -2.888059,0.384883 -4.021548,0.187454 -4.021548,0.187454 -0.826335,-0.155013 -1.872122,-0.200897 -2.673405,-0.929575 0,0 -2.040442,-1.859805 -4.0866506,-3.835309 C 5.246063,18.26437 4.522854,14.5931 4.522854,14.5931 3.8741597,13.126043 5.7656236,10.806256 7.65625,13.75 Z"
       id="path50144"
       sodipodi:nodetypes="cssccsccccccccccccc" /></g><g
     inkscape:groupmode="layer"
     id="layer4"
     inkscape:label="talk"
     style="display:none"><path
       id="path6"
       style="fill:none;stroke:#000000;stroke-width:1.7;stroke-linecap:round;stroke-linejoin:round;stroke-opacity:1"
       d="M 11.272602,21.964518 C 12.42786,22.349573 13.698,22.5625 15.03125,22.5625 c 5.333,0 9.65625,-3.406833 9.65625,-7.609375 0,-4.202542 -4.32325,-7.609375 -9.65625,-7.609375 -5.3329996,0 -9.65625,3.406833 -9.65625,7.609375 0,1.050635 0.2702031,2.051539 0.758836,2.961912 0.4886328,0.910373 1.1956954,1.730216 2.0694141,2.418729 L 7.8808217,24.34126 Z"
       sodipodi:nodetypes="csssssccc" /><circle
       style="fill:none;fill-opacity:1;stroke:#000000;stroke-width:1.4;stroke-linecap:round;stroke-linejoin:round;stroke-dasharray:none;stroke-opacity:1;paint-order:normal"
       id="path7"
       cx="9.965786"
       cy="15.578446"
       r="1.4805049" /><circle
       style="fill:none;fill-opacity:1;stroke:#000000;stroke-width:1.4;stroke-linecap:round;stroke-linejoin:round;stroke-dasharray:none;stroke-opacity:1;paint-order:normal"
       id="circle7"
       cx="15.114408"
       cy="15.578446"
       r="1.4805049" /><circle
       style="fill:none;fill-opacity:1;stroke:#000000;stroke-width:1.4;stroke-linecap:round;stroke-linejoin:round;stroke-dasharray:none;stroke-opacity:1;paint-order:normal"
       id="circle8"
       cx="20.064156"
       cy="15.578446"
       r="1.4805049" /></g><g
     inkscape:label="drop"
     inkscape:groupmode="layer"
     id="g8"
     transform="matrix(0.33144376,0.29392998,-0.29392998,0.33144376,15.476409,-21.317564)"
     style="display:inline"><path
       style="fill:#ffffff;fill-opacity:1;stroke:#000000;stroke-width:2.93453;stroke-linecap:round;stroke-linejoin:round;stroke-dasharray:none;stroke-opacity:1;paint-order:markers fill stroke"
       d="m 44.536276,64.792447 c 0,0 -2.308352,12.670875 9.445505,12.828871 6.419768,0.08629 12.651189,-0.0087 12.651189,-0.0087 2.444504,-0.0401 4.235665,-1.581298 5.834549,-2.603747 0,0 2.169697,-1.427507 6.325312,-6.525259 C 84.090952,61.984327 80.91916,53.737705 77.521753,50.470881 74.124346,47.204057 67.373186,40.437844 67.373186,40.437844 c -5.932773,-5.706942 -9.879563,0.904237 -6.747817,4.663978 l -3.061585,-3.365871 c -4.299616,-3.690033 -8.469128,2.262233 -6.568354,4.9252 l 3.873982,4.241333 -3.111569,-3.295845 c -4.105247,-5.016925 -10.623735,0.549648 -6.436636,5.128766 l 3.570588,4.077905 -3.096444,-3.476568 c -3.378176,-3.023494 -7.622531,2.715706 -5.143511,5.217816 l 8.427021,9.903184"
       id="path8"
       sodipodi:nodetypes="cssccsccccccccccc" /></g></svg>
